<svg width="80" height="80" viewBox="0 0 80 80" fill="none" xmlns="http://www.w3.org/2000/svg">
<g clip-path="url(#clip0_108_123)">
<g filter="url(#filter0_d_108_123)">
<path d="M40.0714 77H69.1428C64.3526 64.2393 58.3583 53.6315 51.3249 54.2806C48.4263 49.2107 48.2997 46.3683 51.3249 41.2984H58.8272V35.375C58.8272 35.375 52.9119 35.375 49.9821 35.375C67.8001 22.0099 58.8272 3 40.0714 3" stroke="white" stroke-width="5" stroke-linecap="round"/>
<path d="M40.0714 77H11C15.7902 64.2393 21.7846 53.6315 28.818 54.2806C31.7165 49.2107 31.8431 46.3683 28.818 41.2984H21.3157V35.375C21.3157 35.375 27.2309 35.375 30.1607 35.375C12.3427 22.0099 21.3157 3 40.0714 3" stroke="white" stroke-width="5" stroke-linecap="round"/>
</g>
<rect x="23" y="37" width="7" height="2" fill="white"/>
<rect x="50" y="37" width="7" height="2" fill="white"/>
</g>
<defs>
<filter id="filter0_d_108_123" x="3.39111" y="0.5" width="73.3606" height="87" filterUnits="userSpaceOnUse" color-interpolation-filters="sRGB">
<feFlood flood-opacity="0" result="BackgroundImageFix"/>
<feColorMatrix in="SourceAlpha" type="matrix" values="0 0 0 0 0 0 0 0 0 0 0 0 0 0 0 0 0 0 127 0" result="hardAlpha"/>
<feOffset dy="4"/>
<feGaussianBlur stdDeviation="2"/>
<feComposite in2="hardAlpha" operator="out"/>
<feColorMatrix type="matrix" values="0 0 0 0 0 0 0 0 0 0 0 0 0 0 0 0 0 0 0.25 0"/>
<feBlend mode="normal" in2="BackgroundImageFix" result="effect1_dropShadow_108_123"/>
<feBlend mode="normal" in="SourceGraphic" in2="effect1_dropShadow_108_123" result="shape"/>
</filter>
<clipPath id="clip0_108_123">
<rect width="80" height="80" fill="white"/>
</clipPath>
</defs>
</svg>
