<svg width="500" height="500" viewBox="0 0 500 500" fill="none" xmlns="http://www.w3.org/2000/svg">
<path d="M395.394 173.64C394.187 174.198 393.001 174.775 391.835 175.369C392.159 221.052 397.393 282.878 403.884 303.215C415.676 340.164 318.808 341.664 323.904 303.215C328.714 266.92 338.28 202.678 391.835 175.369C391.825 173.881 391.82 172.41 391.82 170.958C391.82 159.976 405.361 169.029 395.394 173.64Z" fill="#AE3131"/>
<path d="M318.095 147.278C318.095 115.955 339.167 91.9872 369.926 86.0648C402.749 79.7448 410.63 100.064 424.884 130.299C439.629 161.576 419.902 191.519 386.458 195.087C354.064 198.544 318.095 179.896 318.095 147.278Z" fill="#FFEAAE"/>
<path d="M360.174 190.618C359.865 193.72 357.24 196.528 355.513 198.942C351.26 204.889 347.314 211.228 344.295 217.903C342.272 222.374 339.793 226.794 338.196 231.43C334.887 241.035 331.409 250.387 328.301 260.102C322.542 278.104 322.953 298.69 320.879 317.447C320.305 322.639 319.042 330.757 324.446 333.17C329.386 335.376 334.459 336.948 339.462 339.182C343.428 340.953 349.184 340.425 353.442 340.974C357.492 341.496 361.316 342.535 365.351 342.535C370.702 342.535 376.052 342.535 381.403 342.535C385.443 342.535 393.039 339.572 395.843 336.754C400.631 331.943 400.029 321.645 403.15 316.001C405.46 311.823 403.668 302.162 403.668 297.272C403.668 290.708 402.865 284.122 402.632 277.791C402.315 269.185 401.597 260.587 401.597 252.009C401.597 243.709 398.49 235.915 398.49 227.615C398.49 221.86 397.454 215.806 397.454 209.868C397.454 206.918 398.847 196 396.419 194.78" stroke="white" stroke-width="0.932185" stroke-linecap="round"/>
<path d="M359.366 247.811C358.917 248.272 353.379 252.391 355.783 253.096C357.863 253.707 361.141 254.054 363.296 254.224C369.071 254.681 375.365 256.732 381.269 257.49C384.489 257.904 387.306 259.569 390.573 259.569C393.679 259.569 397.007 259.144 399.993 260.103C404.708 261.617 410.839 260.638 415.77 260.638C419.854 260.638 423.938 260.638 428.022 260.638C429.947 260.638 431.184 260.476 432.588 259.034C434.024 257.558 428.443 261.196 428.08 263.251C427.451 266.805 434.772 267.467 436.344 265.448C437.57 263.874 437.384 262.705 437.384 260.638C437.384 257.777 435.199 258.784 433.223 257.431" stroke="white" stroke-width="0.932185" stroke-linecap="round"/>
<path d="M334.628 352.813C397.593 365.944 418.182 363.089 459.289 411.345C502.824 462.452 350.657 445.781 293.074 432.346C235.492 418.91 118.83 379.096 169.754 352.813C225.159 324.217 280.382 341.5 334.628 352.813Z" fill="#FFEAAE"/>
<path d="M401.65 225.47C404.476 225.184 406.77 222.934 408.939 221.287C412.769 218.38 417.463 216.03 421.796 213.967C425.489 212.207 428.941 210.149 432.873 208.97C438.473 207.291 444.49 205.911 449.69 202.986C452.241 201.551 454.699 201.222 452.273 197.467C450.786 195.164 450.379 190.916 448.944 189.1C448.293 188.276 447.132 183.109 448.715 182.651C451.504 181.845 449.379 187.779 450.724 188.868C451.601 189.579 452.037 195.006 452.503 196.421C453.307 198.863 454.34 206.49 454.34 203.916C454.34 198.58 452.953 188.292 458.472 185.498C466.28 181.546 456.738 196.211 455.889 197.757C454.645 200.025 453.87 202.473 452.044 204.322C448.595 207.813 450.207 201.529 450.207 198.28" stroke="white" stroke-width="0.932185" stroke-linecap="round"/>
<path d="M341.777 342.535C331.675 362.613 316.481 379.856 305.559 399.395C304.101 402.003 306.659 403.047 309.758 403.047C312.523 403.047 319.181 405.63 316.582 403.047" stroke="white" stroke-width="0.932185" stroke-linecap="round"/>
<path d="M369.479 348.791C369.479 361.805 371.873 379.119 378.29 390.631C382.014 397.312 390.298 390.115 395.394 390.115" stroke="white" stroke-width="0.932185" stroke-linecap="round"/>
<path d="M382.883 140.575C383.269 140.515 386.052 138.511 386.248 138.205C386.892 137.197 389.788 138.909 390.032 139.522" stroke="black" stroke-width="0.932185" stroke-linecap="round"/>
<path d="M411.479 137.895C411.797 135.732 415.034 136.138 416.841 136.138" stroke="black" stroke-width="0.932185" stroke-linecap="round"/>
<path d="M400.756 151.299C402.516 151.299 404.597 150.779 406.118 149.512" stroke="black" stroke-width="0.932185" stroke-linecap="round"/>
<path d="M359.804 126.724C341.834 129.615 325.045 137.083 313.335 123.15C296.981 103.691 338.437 91.3424 359.804 77.5748C383.652 62.2085 428.166 53 428.166 53C428.166 53 430.817 70.7478 428.166 81.5961C420.573 112.671 391.387 121.644 359.804 126.724Z" fill="#52360D"/>
<path d="M85.4695 127.239C48.357 207.475 74.3905 281.276 74.3905 281.276C74.3905 281.276 102.888 291.076 154.155 275.413C205.422 259.751 240.461 230.54 240.461 230.54C240.461 230.54 193.748 187.413 187.939 155.997C182.131 124.581 210.714 69.6476 210.714 69.6476C210.714 69.6476 108.07 78.3788 85.4695 127.239Z" fill="#077187"/>
<path d="M150.836 181.221C82.7819 220.953 65.5687 288.21 65.5687 288.21C65.5687 288.21 82.1704 309.922 128.66 324.636C175.15 339.35 284.138 320.195 284.138 320.195C284.138 320.195 230.385 267.941 241.69 242.002C252.996 216.064 274.06 203.033 274.06 203.033C274.06 203.033 192.28 157.026 150.836 181.221Z" fill="#064F5F"/>
<path d="M56.2628 288.918C13.3685 366.217 33.9221 441.728 33.9221 441.728C33.9221 441.728 61.6244 453.591 113.902 441.728C166.179 429.866 203.264 403.302 203.264 403.302C203.264 403.302 159.839 356.867 156.349 325.11C152.859 293.352 185.392 240.662 185.392 240.662C185.392 240.662 82.3839 241.846 56.2628 288.918Z" fill="#077187"/>
<path d="M327.306 360.543C306.808 360.543 287.254 359.797 267.598 354.189C261.215 352.368 252.915 354.022 246.921 351.501C242.108 349.477 235.63 348.819 230.403 347.591C219.175 344.953 207.86 341.848 196.267 341.848C190.887 341.848 186.195 340.749 180.85 340.749C176.687 340.749 174.487 345.698 172.041 348.446C165.845 355.407 171.638 365.726 175.1 372.64C178.662 379.755 189.338 384.946 196.022 388.891C201.615 392.191 206.993 394.958 212.784 397.933C237.829 410.795 263.883 425.466 292.069 430.679C303.652 432.821 314.776 435.585 326.45 437.277C338.231 438.985 349.97 439.602 361.688 441.065C384.952 443.969 408.427 441.92 431.673 441.92C443.102 441.92 449.912 434.785 459.692 431.168C469.904 427.391 470.459 417.476 470.459 407.83C470.459 401.78 457.077 391.947 451.984 389.99C446.891 388.034 441.474 384.118 436.323 381.682C431.654 379.473 426.896 379.675 422.007 378.382C416.117 376.825 409.854 376.838 404.144 375.083C399.664 373.707 392.309 372.64 387.626 372.64C373.258 372.64 360.278 363.842 346.026 363.842C336.545 363.842 330.615 361.648 324.003 355.045" stroke="white" stroke-width="0.932185" stroke-linecap="round"/>
<path d="M35.9676 440.834C35.9676 413.975 28.0389 385.098 33.7655 358.422C39.345 332.431 52.5721 305.794 68.51 284.595C81.7665 266.962 99.4752 251.771 121.361 245.964C130.42 243.56 139.796 239.955 149.315 239.955C153.782 239.955 158.08 239.147 162.528 238.913C169.072 238.567 175.116 240.643 181.552 241.059C184.501 241.249 192.501 241.244 191.156 245.964C190.882 246.923 183.55 252.319 182.408 252.954C175.455 256.827 173.455 267.326 170.297 274.109C164.317 286.955 161.929 304.534 160.632 318.442C159.074 335.155 161.912 350.419 171.398 364.431C180.631 378.071 194.227 389.867 207.733 398.892" stroke="white" stroke-width="0.932185" stroke-linecap="round"/>
<path d="M87.9863 254.538C87.9863 235.252 103.993 224.236 116.827 211.972C130.301 199.096 147.233 191.568 165.22 187.579C186.15 182.937 207.498 183.662 228.645 187.579C237.858 189.285 247.105 191.988 255.652 195.812C257.484 196.631 270.969 201.351 271.6 203.556C272.208 205.681 265.543 207.955 263.962 209.533C259.147 214.338 254.586 219.376 252.475 225.998C247.466 241.709 250.309 262.609 252.964 278.504C254.893 290.055 264.148 300.826 272.211 308.873C276.685 313.338 282.11 317.289 288.159 319.302" stroke="white" stroke-width="0.932185" stroke-linecap="round"/>
<path d="M52.9979 271.045C52.9979 248.342 50.4497 223.851 54.7056 201.479C59.5353 176.09 74.4333 155.734 90.2617 136.077C102.749 120.569 119.896 105.645 136.979 95.3536C148.982 88.1219 167.816 77.0434 182.476 77.0434C185.279 77.0434 195.703 72.8979 197.662 75.0838C199.062 76.6461 197.184 80.5215 196.808 82.1261C195.287 88.6159 195.668 95.14 195.71 101.784C195.867 126.642 200.479 154.332 213.519 176.004C217.908 183.299 227.915 192.196 236.328 193.885" stroke="white" stroke-width="0.932185" stroke-linecap="round"/>
</svg>
