<svg width="33" height="32" viewBox="0 0 33 32" fill="none" xmlns="http://www.w3.org/2000/svg">
<path d="M17.2792 20.5275C17.2792 22.3004 17.0234 23.8974 16.5117 25.3187C16.0171 26.7253 15.2666 27.9267 14.2603 28.9231C13.2711 29.9048 12.0345 30.6667 10.5506 31.2088C9.08378 31.7363 7.37816 32 5.43377 32C4.54685 32 3.66846 31.9487 2.7986 31.8462C1.92873 31.7582 1.02476 31.6117 0.0866723 31.4066L0.393682 28.3297C0.44485 28.0366 0.572771 27.8022 0.777445 27.6264C0.999174 27.4505 1.31471 27.3626 1.72406 27.3626C2.03107 27.3626 2.42336 27.4212 2.90093 27.5385C3.39556 27.641 4.03516 27.6923 4.81974 27.6923C5.86017 27.6923 6.7812 27.5604 7.58284 27.2967C8.40153 27.033 9.08378 26.6227 9.62957 26.0659C10.1924 25.4945 10.6103 24.7692 10.8832 23.8901C11.1731 22.9963 11.3181 21.9194 11.3181 20.6593L11.3181 -4.71797e-07L17.2792 -7.22204e-07L17.2792 20.5275Z" fill="white"/>
<path d="M32.0865 -3.55052e-07L24.9276 8.28859L23.6343 8.28859L23.6649 6.76326C23.6649 6.76326 23.8488 6.38144 23.9469 6.20493C24.0531 6.02841 24.1675 5.86533 24.2901 5.71567L28.8258 0.310822C28.8911 0.234076 29.0056 0.163086 29.169 0.097851C29.3325 0.0326169 29.5368 -2.47944e-07 29.7819 -2.58243e-07L32.0865 -3.55052e-07Z" fill="white"/>
<path d="M31.6651 15.011L31.6652 15.0109C31.9481 14.5125 32.0894 13.9637 32.0894 13.3657C32.0894 12.7677 31.9481 12.2207 31.6651 11.726C31.3826 11.2286 30.9838 10.8031 30.47 10.4493C29.9616 10.0956 29.3492 9.82287 28.634 9.63032C27.9234 9.43389 27.1333 9.33601 26.2642 9.33601L21.9087 9.33601L21.8481 9.33601L21.8481 9.39661L21.8481 17.3348L21.8481 17.3954L21.9087 17.3954L26.2642 17.3954C27.1333 17.3954 27.9233 17.2994 28.6339 17.1067L28.6341 17.1066C29.3493 16.9104 29.9617 16.6359 30.47 16.2821C30.9838 15.9284 31.3826 15.5047 31.6651 15.011ZM29.7885 12.1628L29.7885 12.1628L29.7888 12.1634C29.9656 12.5179 30.0547 12.9183 30.0547 13.3657C30.0547 13.817 29.9656 14.2191 29.7888 14.5735L29.7886 14.5739C29.6169 14.9251 29.367 15.2247 29.038 15.4728L29.0379 15.4728C28.7141 15.7174 28.3183 15.9055 27.8492 16.0361C27.3804 16.1667 26.8522 16.2324 26.2642 16.2324L23.8508 16.2324L23.8508 10.4991L26.2642 10.4991C26.8521 10.4991 27.3801 10.5666 27.8488 10.7007L27.8492 10.7008C28.3183 10.8315 28.7141 11.0196 29.0379 11.2641L29.0383 11.2644C29.367 11.5087 29.6168 11.8081 29.7885 12.1628Z" fill="white" stroke="white" stroke-width="0.121183"/>
<path d="M26.4364 25.8651C26.8982 25.8651 27.287 25.8289 27.6026 25.7564C27.9241 25.6799 28.1843 25.5773 28.383 25.4485C28.5876 25.3197 28.7338 25.1688 28.8215 24.9957C28.915 24.8186 28.9618 24.6294 28.9618 24.4282C28.9618 24.0176 28.7572 23.6956 28.348 23.4622C27.9446 23.2247 27.3045 23.1059 26.4276 23.1059L23.8934 23.1059L23.8934 25.8651L26.4364 25.8651ZM23.8934 19.3928L23.8934 22.1097L25.9453 22.1097C26.8222 22.1097 27.4769 21.993 27.9095 21.7596C28.3421 21.5261 28.5584 21.19 28.5584 20.7513C28.5584 20.2723 28.3538 19.9262 27.9446 19.7128C27.5412 19.4995 26.907 19.3928 26.0418 19.3928L23.8934 19.3928ZM26.0418 18.288C26.8485 18.288 27.5383 18.3423 28.1112 18.451C28.6841 18.5556 29.1547 18.7066 29.523 18.9038C29.8913 19.101 30.1602 19.3425 30.3297 19.6283C30.5051 19.9101 30.5928 20.228 30.5928 20.5822C30.5928 20.7875 30.546 20.9868 30.4525 21.18C30.3648 21.3691 30.2245 21.5482 30.0316 21.7173C29.8445 21.8823 29.6077 22.0312 29.3213 22.1641C29.0349 22.2969 28.6958 22.4076 28.3041 22.4961C30.093 22.7578 30.9874 23.4118 30.9874 24.4583C30.9874 24.8287 30.8851 25.1688 30.6805 25.4787C30.4817 25.7846 30.1894 26.0503 29.8036 26.2757C29.4236 26.497 28.953 26.6701 28.3918 26.7949C27.8306 26.9197 27.1905 26.982 26.4715 26.982L21.8416 26.982L21.8416 18.288L26.0418 18.288Z" fill="white"/>
<rect x="21.8416" width="2.04903" height="8.28859" fill="white"/>
</svg>
