<svg width="32" height="32" viewBox="0 0 32 32" fill="none" xmlns="http://www.w3.org/2000/svg">
<path d="M18.7505 20.542C18.7505 22.3127 18.531 23.9077 18.092 25.3271C17.6677 26.732 17.0238 27.9319 16.1604 28.927C15.3117 29.9074 14.2507 30.6684 12.9776 31.2098C11.7192 31.7366 10.2558 32 8.58759 32C7.82665 32 7.07303 31.9488 6.32672 31.8464C5.58042 31.7586 4.80484 31.6122 4 31.4073L4.2634 28.3343C4.3073 28.0417 4.41706 27.8075 4.59266 27.6319C4.78289 27.4563 5.05361 27.3685 5.40481 27.3685C5.66822 27.3685 6.00479 27.427 6.41452 27.5441C6.83889 27.6465 7.38765 27.6978 8.06079 27.6978C8.95343 27.6978 9.74363 27.5661 10.4314 27.3027C11.1338 27.0393 11.7192 26.6295 12.1874 26.0734C12.6703 25.5027 13.0288 24.7784 13.263 23.9004C13.5118 23.0077 13.6361 21.9322 13.6361 20.6737L13.6361 0.0405268L18.7505 0.0405265L18.7505 20.542Z" fill="white"/>
<path d="M28.8026 -3.23783e-07L23.8734 8.28859L22.9829 8.28859L23.004 6.76326C23.004 6.76326 23.1306 6.38144 23.1981 6.20493C23.2713 6.02841 23.3501 5.86533 23.4345 5.71567L26.5574 0.310822C26.6024 0.234076 26.6812 0.163086 26.7937 0.097851C26.9063 0.0326169 27.047 -2.26108e-07 27.2158 -2.355e-07L28.8026 -3.23783e-07Z" fill="white"/>
<path d="M28.517 14.9971L28.5171 14.997C28.7104 14.5025 28.8068 13.9586 28.8068 13.3657C28.8068 12.7729 28.7104 12.2308 28.5171 11.74C28.3239 11.2459 28.0506 10.8217 27.6969 10.468C27.3469 10.1143 26.9245 9.84097 26.4305 9.64779C25.9396 9.45069 25.3937 9.35252 24.7936 9.35252L21.7947 9.35252L21.7506 9.35252L21.7506 9.39661L21.7506 17.3348L21.7506 17.3789L21.7947 17.3789L24.7936 17.3789C25.3937 17.3789 25.9395 17.2826 26.4304 17.0892L26.4306 17.0891C26.9246 16.8923 27.3469 16.6171 27.6969 16.2634C28.0505 15.9098 28.3239 15.4875 28.517 14.9971ZM27.2159 12.1503L27.216 12.1507C27.3391 12.5092 27.4011 12.914 27.4011 13.3657C27.4011 13.8212 27.3391 14.2278 27.216 14.5862L27.2159 14.5865C27.0964 14.9415 26.9229 15.2428 26.696 15.4914L26.6959 15.4915C26.4727 15.7363 26.2008 15.9237 25.8796 16.0536C25.5585 16.1835 25.1967 16.2489 24.7936 16.2489L23.1342 16.2489L23.1342 10.4826L24.7936 10.4826C25.1966 10.4826 25.5582 10.5497 25.8792 10.6832L25.8796 10.6833C26.2008 10.8133 26.4727 11.0007 26.6959 11.2455L26.6962 11.2457C26.9229 11.4905 27.0964 11.7917 27.2159 12.1503Z" fill="white" stroke="white" stroke-width="0.0881764"/>
<path d="M24.9122 25.8651C25.2302 25.8651 25.4979 25.8289 25.7152 25.7564C25.9366 25.6799 26.1157 25.5773 26.2526 25.4485C26.3934 25.3197 26.4941 25.1688 26.5544 24.9957C26.6188 24.8186 26.651 24.6294 26.651 24.4282C26.651 24.0176 26.5102 23.6956 26.2284 23.4622C25.9507 23.2247 25.5099 23.1059 24.9062 23.1059L23.1613 23.1059L23.1613 25.8651L24.9122 25.8651ZM23.1613 19.3928L23.1613 22.1097L24.5741 22.1097C25.1779 22.1097 25.6287 21.993 25.9265 21.7596C26.2244 21.5261 26.3733 21.19 26.3733 20.7513C26.3733 20.2723 26.2324 19.9262 25.9507 19.7128C25.6729 19.4995 25.2362 19.3928 24.6405 19.3928L23.1613 19.3928ZM24.6405 18.288C25.196 18.288 25.6709 18.3423 26.0654 18.451C26.4598 18.5556 26.7839 18.7066 27.0374 18.9038C27.291 19.101 27.4762 19.3425 27.5929 19.6283C27.7136 19.9101 27.774 20.228 27.774 20.5822C27.774 20.7875 27.7418 20.9868 27.6774 21.18C27.617 21.3691 27.5204 21.5482 27.3876 21.7173C27.2588 21.8823 27.0958 22.0312 26.8986 22.1641C26.7013 22.2969 26.4679 22.4076 26.1982 22.4961C27.4299 22.7578 28.0457 23.4118 28.0457 24.4583C28.0457 24.8287 27.9753 25.1688 27.8344 25.4787C27.6975 25.7846 27.4963 26.0503 27.2306 26.2757C26.969 26.497 26.645 26.6701 26.2586 26.7949C25.8722 26.9197 25.4314 26.982 24.9364 26.982L21.7485 26.982L21.7485 18.288L24.6405 18.288Z" fill="white"/>
<rect x="21.7485" width="1.41082" height="8.28859" fill="white"/>
</svg>
