<svg width="35" height="44" viewBox="0 0 35 44" fill="none" xmlns="http://www.w3.org/2000/svg">
<path d="M20.272 28.2313C20.272 30.6648 19.9704 32.8569 19.367 34.8077C18.7838 36.7384 17.8989 38.3875 16.7123 39.755C15.5459 41.1025 14.0878 42.1483 12.3382 42.8924C10.6086 43.6164 8.59751 43.9784 6.30484 43.9784C5.25906 43.9784 4.22334 43.908 3.19767 43.7672C2.172 43.6465 1.10611 43.4454 2.39838e-06 43.1639L0.362002 38.9405C0.422336 38.5383 0.573169 38.2165 0.814503 37.9752C1.07595 37.7339 1.448 37.6132 1.93067 37.6132C2.29267 37.6132 2.75523 37.6936 3.31834 37.8545C3.90156 37.9953 4.65573 38.0657 5.58084 38.0657C6.80762 38.0657 7.89362 37.8847 8.83884 37.5227C9.80418 37.1607 10.6086 36.5976 11.2522 35.8334C11.9158 35.049 12.4086 34.0535 12.7303 32.8469C13.0722 31.6201 13.2432 30.1419 13.2432 28.4124L13.2432 0.0556633L20.272 0.0556629L20.272 28.2313Z" fill="white"/>
<path d="M34.0867 -4.44984e-07L27.3124 11.3912L26.0886 11.3912L26.1176 9.29491C26.1176 9.29491 26.2916 8.77018 26.3844 8.52759C26.485 8.285 26.5932 8.06086 26.7092 7.85519L31.0012 0.42717C31.063 0.321696 31.1713 0.224133 31.3259 0.134479C31.4806 0.0448263 31.6739 -3.10746e-07 31.9059 -3.23654e-07L34.0867 -4.44984e-07Z" fill="white"/>
<path d="M33.6945 20.6108L33.6946 20.6107C33.9603 19.9311 34.0927 19.1836 34.0927 18.3688C34.0927 17.554 33.9603 16.809 33.6945 16.1343C33.4291 15.4554 33.0534 14.8725 32.5674 14.3864C32.0864 13.9003 31.5059 13.5246 30.827 13.2591C30.1522 12.9883 29.4021 12.8533 28.5773 12.8533L24.4558 12.8533L24.3952 12.8533L24.3952 12.9139L24.3952 23.8237L24.3952 23.8842L24.4558 23.8842L28.5773 23.8842C29.402 23.8842 30.1522 23.7519 30.8269 23.4861L30.8271 23.486C31.506 23.2154 32.0864 22.8372 32.5674 22.3511C33.0534 21.8651 33.429 21.2848 33.6945 20.6108ZM31.9063 16.6985L31.9065 16.699C32.0757 17.1916 32.1608 17.748 32.1608 18.3688C32.1608 18.9947 32.0757 19.5536 31.9065 20.0462L31.9064 20.0465C31.7421 20.5344 31.5037 20.9486 31.1918 21.2902L31.1917 21.2903C30.885 21.6267 30.5113 21.8843 30.0698 22.0628C29.6285 22.2413 29.1313 22.3312 28.5773 22.3312L26.2968 22.3312L26.2968 14.4064L28.5773 14.4064C29.1311 14.4064 29.6281 14.4987 30.0692 14.6821L30.0698 14.6823C30.5113 14.8609 30.885 15.1184 31.1917 15.4549L31.1921 15.4553C31.5037 15.7916 31.742 16.2056 31.9063 16.6985Z" fill="white" stroke="white" stroke-width="0.121183"/>
<path d="M28.74 35.547C29.177 35.547 29.5449 35.4972 29.8436 35.3976C30.1478 35.2925 30.394 35.1515 30.5821 34.9745C30.7757 34.7974 30.914 34.59 30.997 34.3521C31.0855 34.1087 31.1297 33.8488 31.1297 33.5722C31.1297 33.0079 30.9361 32.5654 30.5489 32.2446C30.1672 31.9182 29.5615 31.755 28.7317 31.755L26.3337 31.755L26.3337 35.547L28.74 35.547ZM26.3337 26.652L26.3337 30.3859L28.2754 30.3859C29.1051 30.3859 29.7247 30.2255 30.134 29.9046C30.5434 29.5838 30.748 29.1219 30.748 28.519C30.748 27.8607 30.5544 27.385 30.1672 27.0918C29.7855 26.7986 29.1853 26.652 28.3666 26.652L26.3337 26.652ZM28.3666 25.1335C29.13 25.1335 29.7827 25.2082 30.3248 25.3576C30.867 25.5014 31.3123 25.7088 31.6608 25.9799C32.0093 26.251 32.2637 26.5829 32.4241 26.9756C32.5901 27.3628 32.6731 27.7998 32.6731 28.2866C32.6731 28.5687 32.6288 28.8426 32.5403 29.1081C32.4573 29.3681 32.3246 29.6142 32.142 29.8466C31.965 30.0734 31.741 30.278 31.4699 30.4606C31.1989 30.6431 30.878 30.7953 30.5074 30.9169C32.2001 31.2765 33.0465 32.1754 33.0465 33.6137C33.0465 34.1226 32.9496 34.59 32.756 35.0159C32.568 35.4364 32.2914 35.8014 31.9263 36.1112C31.5667 36.4155 31.1214 36.6533 30.5904 36.8248C30.0593 36.9963 29.4536 37.082 28.7732 37.082L24.3921 37.082L24.3921 25.1335L28.3666 25.1335Z" fill="white"/>
<rect x="24.3921" width="1.93893" height="11.3912" fill="white"/>
</svg>
